<?xml version="1.0" standalone="no"?>
<!DOCTYPE svg PUBLIC "-//W3C//DTD SVG 20010904//EN"
 "http://www.w3.org/TR/2001/REC-SVG-20010904/DTD/svg10.dtd">
<svg version="1.0" xmlns="http://www.w3.org/2000/svg"
 width="273.000000pt" height="171.000000pt" viewBox="0 0 273.000000 171.000000"
 preserveAspectRatio="xMidYMid meet">

<g transform="translate(0.000000,171.000000) scale(0.100000,-0.100000)"
fill="#000000" stroke="none">
<path d="M987 1613 c-4 -3 -7 -14 -7 -24 0 -17 2 -17 30 -1 16 9 30 20 30 25
0 9 -44 9 -53 0z"/>
<path d="M1110 1608 c-53 -15 -83 -48 -44 -48 21 0 43 -28 44 -55 0 -11 4 -27
9 -35 8 -12 14 -9 37 13 15 15 32 27 39 27 7 0 15 8 19 18 3 9 10 27 16 40 8
20 5 24 -27 37 -40 17 -44 17 -93 3z"/>
<path d="M1709 1553 c-15 -2 -39 -17 -55 -32 -24 -24 -34 -27 -69 -24 -25 3
-56 -1 -79 -11 -47 -20 -43 -20 -49 4 -8 29 -48 25 -81 -8 -23 -25 -25 -30
-12 -42 13 -10 17 -8 25 13 14 37 28 41 34 9 4 -20 0 -32 -15 -44 -11 -10 -24
-15 -29 -12 -14 8 -59 -23 -59 -41 0 -8 -8 -18 -17 -24 -10 -5 -15 -13 -11
-16 4 -4 19 2 34 14 31 24 46 26 74 9 16 -10 22 -9 33 6 16 22 50 18 55 -7 3
-13 -3 -17 -24 -17 -25 0 -26 -1 -10 -13 10 -7 16 -20 15 -28 -4 -20 29 -79
44 -79 6 0 19 5 27 10 13 9 13 12 -2 21 -10 5 -18 16 -18 23 0 11 9 10 46 -2
35 -11 48 -22 56 -44 l10 -28 20 25 c25 31 39 31 66 0 26 -30 46 -33 37 -6 -5
15 1 24 25 36 27 14 30 20 28 53 -2 27 1 37 12 37 41 1 80 46 60 70 -18 21 22
44 88 51 41 5 67 13 78 25 14 15 14 19 3 20 -8 1 -27 2 -44 4 -53 4 -191 23
-218 30 -15 4 -27 11 -27 16 0 9 -4 9 -51 2z m-169 -219 c0 -13 -4 -24 -9 -24
-11 0 -22 40 -15 52 9 15 24 -2 24 -28z"/>
<path d="M672 1512 c-15 -5 -16 -58 -2 -67 6 -4 17 -1 25 5 37 31 125 -38 125
-99 0 -21 13 -45 41 -78 47 -54 64 -65 55 -36 -7 23 9 40 44 45 13 1 30 13 36
25 6 13 18 31 27 41 10 10 17 24 17 30 0 7 7 12 15 12 23 0 18 26 -10 44 -31
20 -35 20 -35 -1 0 -40 -16 -47 -49 -22 -36 26 -38 35 -14 61 14 16 15 21 4
28 -8 5 -24 3 -38 -3 -18 -8 -36 -8 -68 1 -24 6 -50 9 -57 7 -7 -3 -33 -2 -58
3 -25 5 -51 7 -58 4z m308 -147 c10 -12 10 -15 -4 -15 -9 0 -16 7 -16 15 0 8
2 15 4 15 2 0 9 -7 16 -15z"/>
<path d="M1017 1508 c6 -7 13 -20 16 -28 4 -10 6 -8 6 6 1 12 -6 25 -15 28
-13 5 -14 3 -7 -6z"/>
<path d="M1314 1300 c-44 -18 -71 -99 -42 -128 7 -7 27 -12 45 -12 28 0 35 -5
47 -34 8 -18 14 -49 14 -67 0 -73 39 -114 63 -69 26 49 39 86 39 110 0 15 9
35 20 45 20 18 20 18 -5 42 -13 14 -29 40 -35 59 -10 31 -15 34 -50 34 -21 0
-43 6 -50 15 -14 17 -17 17 -46 5z"/>
<path d="M1010 1154 c-14 -37 -12 -66 6 -93 13 -19 15 -38 9 -108 -5 -61 -4
-83 4 -79 6 4 11 15 11 25 0 9 16 32 35 51 19 19 35 40 35 46 0 7 8 19 18 26
9 7 22 28 29 46 11 31 10 34 -15 45 -15 6 -40 24 -55 39 -36 35 -64 36 -77 2z"/>
<path d="M1775 1130 c-3 -5 -2 -10 4 -10 5 0 13 5 16 10 3 6 2 10 -4 10 -5 0
-13 -4 -16 -10z"/>
<path d="M1827 1042 c-27 -18 -37 -31 -35 -46 2 -17 9 -21 39 -18 23 2 41 -3
49 -13 19 -23 49 -18 56 9 7 29 -23 79 -42 72 -8 -3 -17 1 -21 8 -6 11 -16 8
-46 -12z"/>
<path d="M1049 747 c-163 -86 -169 -384 -9 -465 59 -29 138 -30 198 0 41 19
46 20 57 5 19 -27 25 -9 25 79 0 46 5 86 10 89 26 16 3 25 -65 25 -43 0 -75
-4 -75 -10 0 -5 8 -10 18 -10 31 0 42 -22 42 -85 0 -48 -4 -66 -19 -79 -31
-28 -91 -31 -143 -8 -66 29 -91 86 -92 206 -1 51 5 113 13 139 16 56 64 112
104 122 71 18 158 -34 177 -106 17 -62 30 -46 30 39 0 75 -1 76 -18 55 l-17
-23 -49 25 c-64 32 -128 33 -187 2z"/>
<path d="M54 751 c4 -6 13 -11 21 -11 7 0 16 -7 19 -16 9 -22 7 -407 -2 -420
-4 -6 -16 -16 -27 -22 -16 -9 8 -11 110 -12 104 0 137 3 164 18 48 24 74 62
74 111 0 54 -25 89 -80 113 l-45 20 30 19 c74 44 81 141 13 186 -21 14 -53 19
-155 21 -92 3 -127 1 -122 -7z m234 -36 c16 -20 22 -39 22 -76 0 -43 -5 -55
-30 -80 -25 -26 -36 -30 -72 -27 l-43 3 -3 84 c-4 107 11 136 66 127 22 -3 46
-16 60 -31z m17 -219 c34 -22 49 -83 33 -131 -16 -47 -52 -75 -105 -82 -63 -8
-73 9 -73 126 0 54 3 101 8 105 11 12 111 -1 137 -18z"/>
<path d="M653 743 c-47 -136 -169 -433 -185 -451 l-21 -22 64 0 c64 1 64 1 35
16 -25 14 -28 20 -23 52 2 21 12 54 20 75 l16 37 84 0 85 0 26 -71 c28 -75 27
-85 -8 -99 -14 -6 6 -9 64 -9 82 -1 84 0 63 17 -14 11 -53 98 -109 245 -49
125 -92 227 -96 227 -5 0 -11 -8 -15 -17z m26 -163 c44 -112 44 -110 -39 -110
-38 0 -70 3 -70 8 0 8 58 160 66 173 9 15 12 11 43 -71z"/>
<path d="M1582 739 c-67 -174 -154 -394 -167 -418 -8 -17 -20 -31 -25 -31 -6
0 -10 -4 -10 -10 0 -6 27 -10 63 -10 56 0 60 1 37 13 -33 17 -37 63 -11 122
l20 45 84 0 84 0 22 -56 c28 -73 27 -102 -1 -114 -17 -6 1 -9 62 -9 82 -1 84
0 63 17 -14 11 -52 94 -108 237 -47 120 -89 223 -95 229 -6 6 -13 0 -18 -15z
m26 -160 c18 -44 32 -87 32 -95 0 -11 -16 -14 -70 -14 -38 0 -70 3 -70 7 0 17
63 183 70 183 4 0 21 -36 38 -81z"/>
<path d="M1838 738 c11 -13 59 -122 105 -243 46 -120 89 -221 94 -222 5 -2 48
94 94 214 46 119 95 230 107 245 l24 28 -61 0 c-67 0 -75 -5 -35 -20 24 -9 26
-15 21 -48 -6 -47 -110 -313 -123 -315 -5 0 -38 77 -74 172 l-64 173 24 19 25
19 -79 0 -79 0 21 -22z"/>
<path d="M2457 729 c-8 -19 -49 -122 -91 -231 -52 -132 -84 -201 -99 -212 -21
-14 -18 -15 48 -15 57 1 65 2 43 10 -38 14 -41 34 -17 106 l21 63 87 0 87 0
22 -62 c28 -79 28 -96 0 -108 -17 -6 -2 -9 55 -9 l78 -1 -20 28 c-11 15 -57
121 -102 237 -44 116 -85 214 -90 219 -5 6 -14 -4 -22 -25z m32 -157 c17 -48
31 -91 31 -95 0 -4 -31 -7 -70 -7 -48 0 -70 4 -70 12 0 20 62 178 70 178 4 0
21 -39 39 -88z"/>
<path d="M1032 130 c0 -14 2 -19 5 -12 2 6 2 18 0 25 -3 6 -5 1 -5 -13z"/>
</g>
</svg>
